<?xml version="1.0" encoding="UTF-8"?>
<svg id="Layer_1" data-name="Layer 1" xmlns="http://www.w3.org/2000/svg" version="1.1" viewBox="0 0 1024 1024">
  <defs>
    <style>
      .cls-1 {
        fill: none;
        stroke: #ea2728;
        stroke-miterlimit: 10;
      }
    </style>
  </defs>
  <polygon class="cls-1" points="524.48 280.93 551.93 284.03 576.28 290.6 599.09 301.81 619.57 314.95 633.1 325 645.47 336.98 654.36 347.42 662.48 364.81 670.21 387.62 680.65 425.89 686.83 447.15 689.54 466.86 691.47 491.6 691.47 519.43 691.47 567.75 689.54 588.24 688.38 613.37 682.58 631.15 674.08 640.81 660.94 649.7 648.57 653.57 636.58 653.57 624.21 649.31 613.39 642.74 604.11 630.76 598.31 618.39 596.38 597.52 598.31 575.87 600.63 553.06 600.63 512 597.93 480.39 593.29 453.72 587.1 431.69 579.76 408.11 573.19 395.35 563.91 388.01 549.22 379.12 535.31 373.7 524.48 372.93 503.61 374.86 490.47 378.34 469.98 385.69 454.13 395.74 442.54 407.33 434.42 421.64 423.98 443.28 415.86 464.54 410.45 485.42 408.13 515.95 408.13 542.63 408.13 573.55 405.81 601.38 398.08 618 389.96 626.12 378.75 633.47 360.59 636.17 343.58 633.47 328.12 621.87 319.23 606.02 315.75 582.05 315.75 551.9 315.75 521.75 315.75 488.12 325.41 447.92 332.37 422.41 345.9 393.03 358.65 370.61 370.64 349.74 389.19 329.64 406.2 315.34 434.42 299.49 459.16 291.37 485.44 284.03 510.18 280.93 524.48 280.93"/>
</svg>