<?xml version="1.0" encoding="UTF-8"?>
<svg id="Layer_1" data-name="Layer 1" xmlns="http://www.w3.org/2000/svg" version="1.1" viewBox="0 0 1024 1024">
  <defs>
    <style>
      .cls-1 {
        fill: none;
        stroke: #ec2426;
        stroke-miterlimit: 10;
      }
    </style>
  </defs>
  <polygon class="cls-1" points="535.45 281.9 548.53 284.2 559.81 291.38 566.99 299.33 571.86 312.91 570.06 332.39 564.42 342.14 553.66 351.36 540.07 355.98 524.69 354.7 510.59 347.52 501.36 335.21 497.77 317.27 500.85 303.68 506.74 293.94 517.77 285.74 535.45 281.9"/>
  <polygon class="cls-1" points="403.18 371.36 414.2 379.31 420.36 387.25 426.25 401.1 426.25 416.22 416.51 430.83 407.8 438.27 393.18 442.37 378.83 442.37 366.01 435.45 354.73 422.12 351.14 405.45 354.48 391.35 363.45 379.31 373.45 371.36 387.54 368.28 403.18 371.36"/>
  <polygon class="cls-1" points="351.14 500.81 364.73 503.38 374.47 509.02 380.37 516.19 385.49 525.17 388.7 537.73 386.01 551.31 378.06 564.13 369.92 570.28 357.3 575.15 342.68 575.15 331.66 570.28 322.95 563.1 316.79 551.57 313.46 539.01 315 525.68 319.36 516.45 327.56 508.25 336.53 503.12 351.14 500.81"/>
  <polygon class="cls-1" points="435.99 644.11 445.99 645.65 455.22 649.49 463.17 656.67 469.06 665.9 472.14 678.46 470.6 690.76 466.24 702.04 460.35 708.2 451.12 715.12 441.38 718.19 428.56 718.19 418.56 715.63 409.08 708.2 401.9 698.45 398.05 684.87 398.05 671.79 404.21 660 412.15 651.54 423.43 645.14 435.99 644.11"/>
  <polygon class="cls-1" points="548.27 667.95 560.06 669.49 567.24 672.82 573.91 677.95 581.34 687.43 584.67 698.2 584.67 709.48 581.08 722.29 575.44 729.99 566.47 737.93 558.78 741.01 546.48 742.29 534.43 739.98 524.94 735.37 517.77 727.17 512 718.19 510.59 705.12 512 692.05 517.77 683.07 525.97 674.87 535.45 670 548.27 667.95"/>
  <polygon class="cls-1" points="541.98 382.94 577.59 372.7 604.91 368.28 626.86 364.4 647.35 368.28 662.96 373.67 673.21 382.94 680.04 391.23 684.43 405.32 684.43 418.55 678.08 438.07 669.79 460.02 653.69 489.29 643.94 504.9 625.4 528.32 613.2 545.39 601.01 565.88 589.79 579.54 569.3 597.1 547.63 603.93 526.86 603.93 512 595.64 499.54 575.15 489.78 549.29 486.37 527.34 482.46 503.92 477.58 476.6 474.17 450.26 478.07 421.48 487.34 405.32 510.59 396.11 541.98 382.94"/>
</svg>