<?xml version="1.0" encoding="UTF-8"?>
<svg id="Layer_1" data-name="Layer 1" xmlns="http://www.w3.org/2000/svg" version="1.1" viewBox="0 0 1024 1024">
  <defs>
    <style>
      .cls-1 {
        fill: none;
        stroke: #ec1e24;
        stroke-miterlimit: 10;
      }
    </style>
  </defs>
  <polygon class="cls-1" points="519.01 295.09 534.14 297.97 545.67 305.18 553.23 311.66 558.27 318.15 560.43 323.19 564.4 331.47 564.4 350.92 564.4 463.66 580.97 465.82 607.26 467.62 650.12 470.15 680.38 472.67 703.43 475.55 724.32 480.23 735.49 487.07 742.69 497.16 747.73 506.52 751.33 524.17 749.17 537.86 743.77 549.39 736.57 557.67 721.08 567.4 705.95 570.64 681.82 567.4 652.64 563.43 627.43 561.63 568.36 558.03 568.72 576.76 568.72 598.73 569.8 658.52 569.08 686.98 564.04 701.75 556.11 712.55 546.03 720.12 530.54 726.96 512 725.52 497.4 720.48 484.44 710.03 475.79 692.38 475.79 658.52 475.79 558.03 409.16 557.67 373.86 557.67 349 556.59 336.04 552.27 325.95 542.9 317.31 531.02 312.63 514.81 314.43 498.96 321.63 484.55 338.56 469.79 352.97 464.38 383.22 464.38 471.47 464.02 470.39 335.43 476.51 319.23 485.16 308.42 498.84 299.42 519.01 295.09"/>
</svg>